<?xml version="1.0" encoding="UTF-8" standalone="no"?>
<!-- Generator: Adobe Illustrator 17.0.0, SVG Export Plug-In . SVG Version: 6.00 Build 0)  -->

<svg
   xmlns:dc="http://purl.org/dc/elements/1.1/"
   xmlns:cc="http://creativecommons.org/ns#"
   xmlns:rdf="http://www.w3.org/1999/02/22-rdf-syntax-ns#"
   xmlns:svg="http://www.w3.org/2000/svg"
   xmlns="http://www.w3.org/2000/svg"
   xmlns:xlink="http://www.w3.org/1999/xlink"
   xmlns:sodipodi="http://sodipodi.sourceforge.net/DTD/sodipodi-0.dtd"
   xmlns:inkscape="http://www.inkscape.org/namespaces/inkscape"
   version="1.1"
   id="Layer_1"
   x="0px"
   y="0px"
   width="3000px"
   height="1800px"
   viewBox="0 0 3000 1800"
   enable-background="new 0 0 3000 1800"
   xml:space="preserve"
   inkscape:version="0.48.4 r9939"
   sodipodi:docname="SFE-03-0013-SparkPunk-silk-bw.svg"><metadata
   id="metadata61"><rdf:RDF><cc:Work
       rdf:about=""><dc:format>image/svg+xml</dc:format><dc:type
         rdf:resource="http://purl.org/dc/dcmitype/StillImage" /></cc:Work></rdf:RDF></metadata><defs
   id="defs59">
	<defs
   id="defs7">
		<rect
   height="1800"
   width="3000"
   id="SVGID_1_" />
	</defs>
	<clipPath
   id="SVGID_2_">
		<use
   id="use11"
   overflow="visible"
   xlink:href="#SVGID_1_" />
	</clipPath>
	
	
	
	
	
	
	
	
	
	
	
	
	
	
	
	
	
	
	
	
	
	
</defs><sodipodi:namedview
   pagecolor="#ffffff"
   bordercolor="#666666"
   borderopacity="1"
   objecttolerance="10"
   gridtolerance="10"
   guidetolerance="10"
   inkscape:pageopacity="0"
   inkscape:pageshadow="2"
   inkscape:window-width="1920"
   inkscape:window-height="1018"
   id="namedview57"
   showgrid="false"
   inkscape:zoom="0.53928677"
   inkscape:cx="1195.2933"
   inkscape:cy="520.76833"
   inkscape:window-x="-8"
   inkscape:window-y="-8"
   inkscape:window-maximized="1"
   inkscape:current-layer="Layer_1" />

<path
   style="fill:#ffffff"
   inkscape:connector-curvature="0"
   id="path13"
   d="m 626.532,991.229 c 0,24.146 21.412,34.455 43.17,34.455 15.832,0 36.828,-6.318 36.828,-26.111 0,-17.038 -23.751,-23.38 -63.75,-31.664 -32.87,-7.554 -64.919,-18.25 -64.919,-54.64 0,-52.282 45.096,-65.733 89.046,-65.733 44.374,0 85.925,15.03 90.299,65.33 h -53.431 c -1.619,-21.777 -18.241,-27.752 -38.419,-27.752 -12.691,0 -31.315,2.008 -31.315,19.04 0,20.16 32.116,22.958 63.78,30.451 32.839,7.555 64.925,19.426 64.925,57.432 0,53.845 -47.128,71.249 -93.457,71.249 -47.477,0 -94.183,-17.791 -96.179,-72.057 h 53.422 z"
   clip-path="url(#SVGID_2_)" /><path
   style="fill:#ffffff"
   inkscape:connector-curvature="0"
   id="path15"
   d="m 785.2,862.604 53.458,-9.538 V 879.2 h 0.793 c 13.866,-22.186 35.624,-31.663 60.967,-31.663 64.126,0 93.044,51.86 93.044,110.039 0,54.658 -29.708,105.71 -89.885,105.71 -24.957,0 -47.505,-10.694 -61.341,-30.854 h -0.82 v 147.372 L 785.2,1129.791 V 862.604 z m 152.018,93.398 c 0,-32.845 -13.05,-66.107 -49.057,-66.107 -36.84,0 -48.71,32.876 -48.71,66.107 0,33.237 12.633,64.907 49.084,64.907 36.828,0 48.683,-31.67 48.683,-64.907"
   clip-path="url(#SVGID_2_)" /><path
   style="fill:#ffffff"
   inkscape:connector-curvature="0"
   id="path17"
   d="m 1015.943,916.031 c 3.168,-52.265 50.29,-68.494 96.216,-68.494 40.788,0 89.903,9.097 89.903,58.16 v 106.538 c 0,18.598 1.965,37.216 7.102,45.523 h -56.979 c -1.992,-6.343 -3.572,-13.089 -4.016,-19.781 -17.771,18.6 -43.516,25.31 -68.89,25.31 -39.169,0 -69.639,-19.37 -69.639,-61.381 0.762,-93.007 138.529,-43.13 136.178,-89.04 0,-23.76 -16.652,-27.752 -36.415,-27.752 -21.788,0 -35.247,8.749 -37.216,30.917 h -56.244 z m 129.875,41.545 c -9.501,8.332 -29.294,8.711 -46.709,11.914 -17.42,3.122 -33.289,9.501 -33.289,30.084 0,20.582 16.245,26.11 34.495,26.11 43.921,0 45.503,-34.454 45.503,-47.098 v -21.01 z"
   clip-path="url(#SVGID_2_)" /><path
   style="fill:#ffffff"
   inkscape:connector-curvature="0"
   id="path19"
   d="m 1233.887,862.604 53.462,-9.538 v 38.024 h 0.759 c 10.711,-25.75 37.247,-43.552 65.335,-43.552 4.371,0 8.332,0.808 12.294,1.964 v 52.246 c -5.167,-1.139 -13.46,-1.965 -20.21,-1.965 -41.544,0 -55.42,29.294 -55.42,65.739 v 92.236 h -56.22 V 862.604 z"
   clip-path="url(#SVGID_2_)" /><polygon
   style="fill:#ffffff"
   id="polygon21"
   points="1443.668,926.744 1514.544,853.065 1581.056,853.065 1503.843,928.324 1589.724,1057.758 1521.64,1057.758 1465.457,966.287 1443.668,987.292 1443.668,1057.758 1387.458,1057.758 1387.458,805.912 1443.668,775.075 "
   clip-path="url(#SVGID_2_)" /><path
   style="fill:#ffffff"
   inkscape:connector-curvature="0"
   id="path25"
   d="m 1926.754,1057.759 h -53.458 v -28.523 h -1.2 c -14.216,23.356 -38.79,34.052 -62.557,34.052 -59.776,0 -74.807,-33.629 -74.807,-84.296 V 853.065 h 56.232 v 115.599 c 0,33.665 9.496,50.273 35.999,50.273 30.512,0 43.558,-17.031 43.558,-58.582 v -107.29 h 56.232 v 204.694 z"
   clip-path="url(#SVGID_2_)" /><path
   style="fill:#ffffff"
   inkscape:connector-curvature="0"
   id="path27"
   d="m 1957.799,853.065 h 53.44 v 28.505 h 1.2 c 14.239,-23.338 38.771,-34.033 62.556,-34.033 59.782,0 74.812,33.647 74.812,84.296 v 125.926 h -56.213 V 942.16 c 0,-33.665 -9.539,-50.299 -36.041,-50.299 -30.47,0 -43.498,17.039 -43.498,58.625 v 107.272 h -56.256 V 853.065 z"
   clip-path="url(#SVGID_2_)" /><path
   style="fill:#000000;fill-opacity:1"
   inkscape:connector-curvature="0"
   id="path29"
   d="m 626.532,991.229 c 0,24.146 21.412,34.455 43.17,34.455 15.832,0 36.828,-6.318 36.828,-26.111 0,-17.038 -23.751,-23.38 -63.75,-31.664 -32.87,-7.554 -64.919,-18.25 -64.919,-54.64 0,-52.282 45.096,-65.733 89.046,-65.733 44.374,0 85.925,15.03 90.299,65.33 h -53.431 c -1.619,-21.777 -18.241,-27.752 -38.419,-27.752 -12.691,0 -31.315,2.008 -31.315,19.04 0,20.16 32.116,22.958 63.78,30.451 32.839,7.555 64.925,19.426 64.925,57.432 0,53.845 -47.128,71.249 -93.457,71.249 -47.477,0 -94.183,-17.791 -96.179,-72.057 h 53.422 z"
   clip-path="url(#SVGID_2_)" /><path
   style="fill:#000000;fill-opacity:1"
   inkscape:connector-curvature="0"
   id="path31"
   d="m 785.2,862.604 53.458,-9.538 V 879.2 h 0.793 c 13.866,-22.186 35.624,-31.663 60.967,-31.663 64.126,0 93.044,51.86 93.044,110.039 0,54.658 -29.708,105.71 -89.885,105.71 -24.957,0 -47.505,-10.694 -61.341,-30.854 h -0.82 v 147.372 L 785.2,1129.791 V 862.604 z m 152.018,93.398 c 0,-32.845 -13.05,-66.107 -49.057,-66.107 -36.84,0 -48.71,32.876 -48.71,66.107 0,33.237 12.633,64.907 49.084,64.907 36.828,0 48.683,-31.67 48.683,-64.907"
   clip-path="url(#SVGID_2_)" /><path
   style="fill:#000000;fill-opacity:1"
   inkscape:connector-curvature="0"
   id="path33"
   d="m 1015.943,916.031 c 3.168,-52.265 50.29,-68.494 96.216,-68.494 40.788,0 89.903,9.097 89.903,58.16 v 106.538 c 0,18.598 1.965,37.216 7.102,45.523 h -56.979 c -1.992,-6.343 -3.572,-13.089 -4.016,-19.781 -17.771,18.6 -43.516,25.31 -68.89,25.31 -39.169,0 -69.639,-19.37 -69.639,-61.381 0.762,-93.007 138.529,-43.13 136.178,-89.04 0,-23.76 -16.652,-27.752 -36.415,-27.752 -21.788,0 -35.247,8.749 -37.216,30.917 h -56.244 z m 129.875,41.545 c -9.501,8.332 -29.294,8.711 -46.709,11.914 -17.42,3.122 -33.289,9.501 -33.289,30.084 0,20.582 16.245,26.11 34.495,26.11 43.921,0 45.503,-34.454 45.503,-47.098 v -21.01 z"
   clip-path="url(#SVGID_2_)" /><path
   style="fill:#000000;fill-opacity:1"
   inkscape:connector-curvature="0"
   id="path35"
   d="m 1233.887,862.604 53.462,-9.538 v 38.024 h 0.759 c 10.711,-25.75 37.247,-43.552 65.335,-43.552 4.371,0 8.332,0.808 12.294,1.964 v 52.246 c -5.167,-1.139 -13.46,-1.965 -20.21,-1.965 -41.544,0 -55.42,29.294 -55.42,65.739 v 92.236 h -56.22 V 862.604 z"
   clip-path="url(#SVGID_2_)" /><path
   style="fill:#000000;fill-opacity:1"
   clip-path="url(#SVGID_2_)"
   d="m 1443.668,926.744 70.876,-73.679 66.512,0 -77.213,75.259 85.881,129.434 -68.084,0 -56.183,-91.471 -21.789,21.005 0,70.466 -56.21,0 0,-251.846 56.21,-30.837 z"
   id="polygon37" /><path
   style="fill:#000000;fill-opacity:1"
   inkscape:connector-curvature="0"
   id="path41"
   d="m 1926.754,1057.759 h -53.458 v -28.523 h -1.2 c -14.216,23.356 -38.79,34.052 -62.557,34.052 -59.776,0 -74.807,-33.629 -74.807,-84.296 V 853.065 h 56.232 v 115.599 c 0,33.665 9.496,50.273 35.999,50.273 30.512,0 43.558,-17.031 43.558,-58.582 v -107.29 h 56.232 v 204.694 z"
   clip-path="url(#SVGID_2_)" /><path
   style="fill:#000000;fill-opacity:1"
   inkscape:connector-curvature="0"
   id="path43"
   d="m 1957.799,853.065 h 53.44 v 28.505 h 1.2 c 14.239,-23.338 38.771,-34.033 62.556,-34.033 59.782,0 74.812,33.647 74.812,84.296 v 125.926 h -56.213 V 942.16 c 0,-33.665 -9.539,-50.299 -36.041,-50.299 -30.47,0 -43.498,17.039 -43.498,58.625 v 107.272 h -56.256 V 853.065 z"
   clip-path="url(#SVGID_2_)" /><path
   style="fill:#000000;fill-opacity:1"
   inkscape:connector-curvature="0"
   id="path47"
   d="m 1636.058,818.61 c 0,0 -1.123,-0.208 -2.807,-0.521 -1.64,-0.319 -3.601,-0.772 -5.489,-1.243 -3.2,-1.95 -7.171,-1.897 -10.744,-4.027 -2.383,5.839 -4.501,12.643 -6.883,18.482 -2.178,-2.249 -5.658,-5.225 -10.096,-7.037 -2.199,-0.912 -4.605,-1.542 -6.963,-1.712 -2.348,-0.173 -4.656,0.117 -6.412,0.977 0.137,0.907 0.37,1.915 0.712,2.994 4.513,7.965 6.271,12.355 6.903,16.735 l 0.104,0.809 0.083,1.255 c 0.047,0.847 0.08,1.697 0.102,2.549 0.045,1.704 0.043,3.415 0.022,5.127 -0.041,3.423 -0.161,6.846 -0.155,10.209 -0.999,0.962 -1.999,0.964 -1.997,1.924 -3.978,13.458 4.04,24.975 8.062,37.459 -2.986,8.652 -8.973,17.31 -11.958,25.961 l 3,-0.005 c 2.004,2.879 5.003,1.914 8.006,3.83 -2.992,4.809 -6.986,8.659 -9.979,13.468 3.004,1.916 4.006,2.876 6.377,5.66 0,0 -0.232,1.044 -0.602,2.696 -1.75,7.01 -3.739,13.739 -7.729,19.51 3.003,1.917 6.004,2.873 9.009,5.751 -2.994,3.848 -3.988,7.692 -5.981,11.539 3.006,3.838 11.012,7.668 6.021,12.481 -5.992,4.812 -8.982,11.544 -13.973,17.316 -0.498,1.442 -0.735,2.87 -1.061,4.243 -2.453,7.972 -2.672,16.52 -2.025,25.236 0.324,4.357 0.864,8.759 1.451,13.149 0.298,2.195 0.595,4.391 0.892,6.575 0.145,1.092 0.289,2.183 0.433,3.271 0.134,1.121 0.268,2.239 0.401,3.353 -0.994,3.599 -0.989,7.048 -0.858,10.287 0.13,3.281 0.385,6.357 -0.109,10.288 0.736,1.701 0.936,3.826 1.132,5.955 2.15,-0.074 4.291,-0.147 6.558,-0.557 2.258,-0.409 4.631,-1.156 7.058,-2.589 1.483,-0.75 2.94,-1.547 4.446,-2.403 1.524,-0.873 2.946,-1.688 4.297,-2.382 -0.082,1.999 0.878,3.291 2.198,4.547 1.333,1.248 3.02,2.448 4.595,4.226 l 5.607,1.042 c 10.677,-7.825 23.069,-5.293 35.977,-4.467 0,0 1.972,-0.525 3.86,-1.029 0.597,-1.055 2.517,-0.973 3.477,-0.932 4.012,-3.832 8.896,-5.625 11.947,-9.498 5.802,-0.753 10.645,-1.546 16.404,-1.301 0.437,1.021 1.376,1.562 2.313,2.102 0.45,0.27 0.984,0.543 1.301,0.869 0.183,0.32 0.349,0.703 0.466,1.209 1.467,-1.439 2.464,-3.148 2.987,-4.752 0.539,-1.604 0.606,-3.103 0.627,-4.103 2.16,3.597 4.604,6.703 7.611,9.835 2.984,3.131 6.533,6.285 10.325,9.95 1.242,0.225 2.381,0.327 3.413,0.343 -0.011,-2.666 -0.497,-5.658 -0.971,-8.445 -0.473,-2.809 -0.933,-5.407 -0.881,-7.84 -1.198,-2.395 -2.404,-4.492 -3.632,-6.293 -0.614,-0.901 -1.232,-1.728 -1.859,-2.478 -0.314,-0.375 -0.63,-0.729 -0.946,-1.067 -0.313,-0.545 -0.625,-1.197 -0.941,-1.791 -2.521,-4.858 -5.169,-9.72 -8.065,-14.587 0.02,-0.961 0.061,-2.882 0.082,-3.843 2.101,-4.76 2.203,-9.562 3.306,-14.344 4.162,-7.6 7.325,-15.221 8.509,-23.845 2.041,-1.878 3.103,-4.739 5.143,-6.617 -2.979,-1.025 -4.896,-4.91 -7.875,-5.935 1.061,-2.86 1.102,-4.781 1.775,-7.785 0.351,-2.006 0.708,-4.054 0.978,-5.59 0.264,-1.537 0.439,-2.562 0.439,-2.562 0,0 0.579,-2.416 1.159,-4.831 0.579,-2.416 1.084,-4.153 1.084,-4.153 -0.823,-3.812 -0.741,-7.653 -2.659,-11.539 4.04,-1.836 7.102,-4.653 10.142,-6.511 0.02,-0.961 -0.959,-1.943 -0.939,-2.903 -6.916,-3.991 -12.792,-9.883 -17.668,-15.753 3.081,-3.777 5.162,-7.578 9.243,-11.335 1.02,-0.939 1.061,-2.86 2.082,-3.8 2.061,-2.839 5.08,-3.736 8.12,-5.593 1.082,-3.821 5.081,-3.736 6.163,-7.558 -0.918,-3.863 -1.856,-6.767 -1.775,-10.608 -2.917,-3.906 -0.815,-8.667 -3.733,-12.573 -6.813,-8.794 -12.67,-15.646 -19.504,-23.48 7.162,-7.536 13.324,-15.093 22.445,-20.664 -0.898,-4.825 -0.775,-10.588 1.327,-15.349 -2.959,-1.985 -3.897,-4.888 -6.855,-6.873 -0.979,-0.982 -1.979,-1.003 -2.959,-1.985 0.021,-0.96 0.041,-1.921 1.062,-2.86 3.02,-0.897 5.101,-4.697 7.162,-7.536 -0.225,-1.206 -0.448,-2.412 -0.643,-3.617 -0.086,-2.525 0.146,-4.983 0.012,-7.271 -0.067,-1.144 -0.227,-2.245 -0.563,-3.291 -0.168,-0.524 -0.38,-1.033 -0.647,-1.527 -0.269,-0.485 -0.591,-1.007 -0.981,-1.353 -1.074,-1.242 -2.542,-2.673 -4.019,-3.76 -1.475,-1.106 -2.957,-1.868 -4.072,-2.282 -1.116,-0.42 -1.862,-0.553 -1.862,-0.553 0,0 0.795,-0.687 1.992,-1.895 1.196,-1.203 2.795,-2.976 4.399,-5.025 1.604,-2.04 2.923,-4.08 3.891,-5.677 1.304,-1.778 1.322,-2.652 1.34,-3.475 -1.613,0.042 -2.567,-0.348 -3.056,-1.186 -2.54,0.749 -4.21,0.634 -5.792,0.161 -1.563,-0.473 -3.049,-1.304 -4.728,-1.996 -1.348,1.032 -2.983,3.071 -4.056,2.597 -2.168,1.299 -3.985,2.742 -3.985,2.742 0,0 -3.053,1.174 -5.438,2.332 -4.075,1.198 -8.151,2.396 -8.151,2.396 l -14.407,-6.702 -4.973,-1.552 c 0,0 -3.121,3.512 -6.243,7.025 -0.78,0.878 -1.56,1.756 -2.292,2.58 -0.224,0.206 -0.267,0.406 -0.352,0.602 -0.076,0.195 -0.15,0.387 -0.223,0.573 -0.137,0.373 -0.255,0.725 -0.354,1.05 -0.396,1.299 -0.521,2.162 -0.521,2.162 0,0 -0.359,-0.538 -1.039,-1.342 -0.675,-0.804 -1.706,-1.872 -2.953,-2.936 -1.234,-1.064 -2.686,-2.122 -3.871,-2.914 -1.184,-0.792 -2.063,-1.318 -2.063,-1.318 0,0 -0.787,1.449 -1.046,2.886 -0.311,1.438 -0.092,2.864 -0.092,2.864 l -1.615,-0.631 c -1.721,1.566 -3.443,3.828 -5.167,6.787 0,0 -2.252,0.095 -4.505,0.673 -2.254,0.53 -4.508,1.542 -4.508,1.542 0,0 0.614,1.148 1.535,2.738 0.923,1.593 2.152,3.592 3.383,5.385 1.229,1.805 2.46,3.403 3.383,4.508 0.923,1.107 1.538,1.758 1.538,1.758 l -23.3,-0.047 c 0,0 -0.867,-1.479 -2.167,-3.928 -1.301,-2.443 -3.034,-5.921 -4.767,-9.759 -1.731,-3.818 -3.464,-7.996 -4.763,-11.295 -1.298,-3.293 -2.163,-5.642 -2.163,-5.642 0,0 1.127,-1.082 2.817,-2.458 1.69,-1.382 3.943,-2.991 6.196,-4.215 2.252,-1.245 4.504,-2.106 6.193,-2.576 1.688,-0.475 2.814,-0.628 2.814,-0.628 0,0 0.382,-1.073 0.764,-2.146 0.382,-1.028 0.764,-2.055 0.764,-2.055 l -0.062,-0.19 c 1.351,-1.239 2.956,-2.483 4.815,-3.734 1.414,-0.954 3.001,-1.912 4.271,-2.632 -0.048,-0.708 1.335,-0.741 2.706,-0.772 5.227,1.878 10.825,2.747 14.038,5.673 2.059,-1.049 2.716,-4.065 5.298,-5.126 -0.128,-0.997 0.813,-1.769 1.646,-2.539 0.823,-0.77 1.542,-1.537 0.74,-2.518 1.988,0.578 2.74,1.139 3.967,1.653 1.146,0.517 2.313,0.997 3.495,1.454 2.364,0.914 4.786,1.732 7.208,2.551 4.844,1.636 9.688,3.273 14.069,5.672 2.881,-0.068 4.756,-2.113 7.661,-1.18 0.471,-0.387 0.959,-0.726 1.458,-1.031 0.226,-0.152 0.548,-0.297 0.871,-0.435 0.321,-0.138 0.647,-0.269 0.98,-0.394 1.328,-0.5 2.739,-0.908 4.186,-1.317 2.904,-0.818 5.918,-1.639 9.087,-3.214 4.038,-0.094 7.404,0.577 10.495,1.255 3.12,0.677 5.966,1.36 9.687,1.273 2.638,-0.847 5.394,-1.696 8.306,-2.489 1.077,2.151 1.994,4.955 2.521,8.762 0.986,0.642 1.455,2.104 1.923,3.61 0.468,1.511 0.935,3.066 1.914,4.055 -2.562,2.89 -4.131,6.109 -5.572,9.202 -1.44,3.089 -2.755,6.078 -4.804,8.348 0.966,1.6 1.679,3.378 2.514,5.249 0.418,0.938 0.866,1.903 1.393,2.905 0.134,0.25 0.271,0.502 0.408,0.759 0.143,0.236 0.288,0.563 0.444,0.711 0.312,0.367 0.647,0.734 1.014,1.102 -1.184,8.624 1.652,16.373 4.468,25.082 -1.041,1.9 -0.082,3.842 -3.103,4.739 -0.02,0.961 -0.02,0.961 -0.04,1.921 1.979,1.004 3.938,2.967 4.876,5.87 0,0 0.979,0.982 1.979,1.004 -0.123,5.763 -1.226,10.545 0.25,16.093 0.115,1.515 0.269,3.022 0.469,4.513 0.199,1.49 0.446,2.963 0.748,4.411 -2.04,1.879 -4.061,2.797 -3.122,5.7 -0.999,-0.021 -1.999,-0.043 -3.019,0.897 -1.021,0.939 0.958,1.942 -1.041,1.9 7.712,13.618 4.364,29.884 5.058,44.314 -1.021,0.94 -1.041,1.9 -2.062,2.84 -0.103,4.803 -4.184,8.561 -5.265,12.381 -4.102,4.718 -6.203,9.479 -9.325,15.178 8.916,4.033 4.692,14.516 8.547,21.324 -3.06,2.818 -5.101,4.696 -8.16,7.515 1.938,2.925 0.855,6.746 0.787,9.802 -0.024,1.214 -0.051,2.467 -0.074,3.668 -2.081,3.8 -1.163,7.663 -3.245,11.463 4.938,2.988 7.835,7.855 11.771,10.822 -3.06,2.818 -5.142,6.618 -8.202,9.435 -2.061,2.841 -0.122,5.765 -1.184,8.625 -4.122,5.679 -6.265,12.359 -8.408,19.041 5.417,3.959 9.055,9.322 12.184,15.035 0.781,1.429 1.533,2.877 2.268,4.322 1.055,4.038 3.993,6.983 5.932,9.908 -0.213,9.955 -0.459,21.568 -0.672,31.523 -1.564,7.463 -2.61,13.771 -3.178,20.77 -3.295,-0.318 -6.541,-0.546 -9.857,-0.688 -7.538,-2.824 -14.086,-5.356 -19.797,-7.978 -5.697,-2.621 -10.548,-5.331 -14.362,-8.497 -1.604,0.432 -3.266,0.861 -4.867,1.543 -0.781,0.342 -1.635,0.743 -2.312,1.246 -0.606,0.506 -1.174,1.106 -1.686,1.836 -4.629,-4.202 -9.215,-9.403 -15.977,-8.691 -14.037,13.412 -34.11,10.551 -51.561,13.809 -2.837,-1.123 -6.634,-2.286 -9.256,-3.516 -0.298,-0.101 -0.599,-0.203 -0.903,-0.306 l -0.228,-0.078 c -0.081,-0.026 -0.218,-0.055 -0.325,-0.083 l -0.684,-0.169 c -0.902,-0.231 -1.829,-0.471 -2.801,-0.72 -3.815,-1.017 -7.352,-2.058 -10.449,-3.191 -2.107,1.912 -4.862,1.794 -8.19,2.652 -6.074,-1.384 -11.927,-2.127 -18.091,-2.519 0.148,-8.185 -0.299,-15.756 -0.788,-23.757 -0.245,-3.988 -0.5,-8.06 -0.696,-12.229 -0.079,-1.926 -0.159,-3.854 -0.239,-5.791 -0.058,-1.454 -0.093,-2.915 -0.095,-4.383 2.994,-3.849 -1.011,-6.725 -0.29,-10.089 -0.358,-1.761 -0.658,-3.521 -0.92,-5.282 -1.049,-7.044 -1.504,-14.09 -2.849,-21.134 0.997,-1.923 0.994,-3.845 0.991,-5.766 0,-1.922 -0.01,-3.844 0.989,-5.767 0,-0.961 -1.001,-0.959 -1.003,-1.92 2.995,-2.888 3.989,-6.732 5.558,-10.467 0.148,-1.107 0.083,-2.243 -0.307,-3.402 -0.386,-1.165 -1.109,-2.312 -2.278,-3.431 0.994,-3.845 1.987,-7.689 3.982,-10.574 -0.996,-0.966 -0.996,-0.966 -1.768,-1.712 -0.896,-0.887 -2.112,-2.123 -3.512,-3.682 -1.4,-1.559 -2.801,-3.118 -3.85,-4.287 -1.05,-1.169 -1.734,-1.771 -1.734,-1.771 0.844,-1.023 2.841,-2.948 2.838,-4.869 3.991,-4.811 6.985,-8.659 8.976,-14.427 -2.5,-0.477 -4.503,-1.914 -6.382,-3.458 -1.625,-1.333 -3.629,-3.251 -5.63,-4.209 2.995,-2.888 6.991,-5.776 9.985,-8.663 -5.002,-0.953 -9.005,-2.868 -13.009,-5.744 3.982,-10.575 12.974,-16.355 16.956,-26.93 -1.003,-1.921 -2.008,-4.802 -4.009,-5.759 l 0.998,-0.963 c -1.005,-2.881 -3.006,-3.838 -5.009,-5.756 -2.018,-10.566 -9.033,-20.163 -13.051,-30.725 2.491,-5.77 5.231,-11.538 7.473,-17.547 0.56,-1.502 1.089,-3.019 1.574,-4.555 l 0.181,-0.577 0.088,-0.289 0.087,-0.462 0.338,-1.859 c 0.206,-1.225 0.412,-2.452 0.62,-3.683 0.773,-4.889 1.328,-9.689 1.569,-14.713 -2.235,-5.559 -4.075,-11.95 -5.166,-18.517 5.506,-2.907 13.37,-5.255 22.184,-5.949 0.577,0.879 2.687,1.337 4.666,1.83 l 4.432,-1.216 c 2.34,1.432 5.823,2.549 8.706,2.795 -0.132,-4.112 0.662,-8.478 0.579,-12.765 0.139,-1.354 0.229,-2.258 0.229,-2.258 9.517,1.819 17.192,8.007 26.655,8.857"
   clip-path="url(#SVGID_2_)" /><path
   style="fill:#000000;fill-opacity:1"
   inkscape:connector-curvature="0"
   id="path49"
   d="m 1620.893,897.943 c -0.06,-1.442 0.929,-2.514 2.371,-2.574 l 48.426,-1.977 c 1.236,-0.05 3.33,0.689 4.188,1.48 l 17.802,16.405 c 1.072,0.988 1.973,2.809 2.031,4.251 l 2.096,51.311 c 0.059,1.442 -0.69,3.331 -1.679,4.403 l -16.404,17.802 c -0.791,0.857 -2.817,1.767 -4.054,1.816 l -26.583,1.086 c -1.237,0.05 -2.422,1.337 -2.372,2.573 l 2.221,54.402 c 0.061,1.443 -0.929,2.515 -2.371,2.574 l -16.691,0.682 c -1.442,0.059 -2.515,-0.93 -2.779,-2.363 l -6.202,-151.871 z m 53.228,65.117 c 0.782,-1.064 1.531,-2.952 1.472,-4.395 l -1.354,-33.177 c -0.059,-1.443 -0.959,-3.264 -1.825,-4.26 l -4.71,-4.143 c -0.858,-0.79 -2.746,-1.539 -4.188,-1.479 l -17.517,0.715 c -1.441,0.059 -2.43,1.131 -2.371,2.573 l 1.994,48.838 c 0.06,1.442 1.132,2.431 2.573,2.372 l 17.517,-0.715 c 1.442,-0.059 3.271,-0.752 4.054,-1.817 l 4.355,-4.512 z"
   clip-path="url(#SVGID_2_)" /><path
   style="fill:#000000;fill-opacity:1"
   inkscape:connector-curvature="0"
   id="path53"
   d="m 2202.57,768.195 c 0,0 -0.412,1.273 -1.028,3.183 -0.612,1.856 -1.395,4.047 -2.171,6.147 -2.141,3.151 -3.032,7.933 -5.388,11.469 3.606,4.915 7.962,9.851 11.569,14.766 -4.782,9.475 -13.277,17.638 -10.704,32.138 6.321,14.61 4.289,32.58 3.793,49.394 -0.786,1.179 -1.535,1.156 -1.571,2.357 -3.494,16.725 2.076,31.315 4.614,47.015 -2.569,10.742 -7.386,21.418 -9.954,32.16 l 2.249,0.066 c 1.392,3.646 3.677,2.513 5.855,4.98 -2.427,5.939 -5.567,10.654 -7.994,16.593 2.179,2.468 2.893,3.691 4.563,7.229 0,0 -0.214,1.298 -0.553,3.355 -1.58,8.72 -3.327,17.082 -6.539,24.198 2.178,2.47 4.393,3.736 6.534,7.406 -2.391,4.737 -3.282,9.52 -4.923,14.278 2.105,4.87 7.962,9.851 4.036,15.745 -4.675,5.872 -7.173,14.213 -11.134,21.307 -0.429,1.791 -0.661,3.57 -0.957,5.278 -1.992,9.207 -2.557,19.083 -2.504,29.191 0.014,2.527 0.065,5.069 0.144,7.618 0.098,2.584 0.197,5.177 0.295,7.773 0.219,5.615 0.5,10.943 0.74,15.967 1.604,0.467 3.2,0.933 4.792,1.396 3.473,2.072 7.543,3.564 11.41,4.883 3.699,1.256 7.43,2.423 11.248,4.223 3.643,0.536 7.31,1.88 10.963,2.935 3.705,1.073 7.091,1.747 11.374,1.382 1.723,-0.018 3.596,-0.018 5.842,0.07 1.419,0.053 2.91,0.151 4.505,0.319 0.352,0.578 0.705,1.225 1.056,1.928 -1.047,2.487 -1.429,5.454 -1.786,8.341 -0.348,2.903 -0.664,5.726 -1.541,7.938 l 0.748,7.035 c 1.99,2.68 3.599,5.584 4.93,8.662 0.666,1.538 1.262,3.12 1.803,4.741 0.271,0.811 0.527,1.629 0.771,2.458 0.22,0.772 0.44,1.549 0.662,2.329 0.777,2.817 1.367,5.671 1.907,8.671 0.539,2.993 1.028,6.134 1.563,9.322 0.894,-0.164 1.79,-0.329 2.688,-0.494 0,0 2.312,-0.925 4.33,-1.802 0.906,-1.014 2.679,-1.377 3.588,-1.564 2.188,-1.98 4.054,-3.512 5.479,-4.953 0.355,-0.36 0.683,-0.715 0.977,-1.068 0.147,-0.177 0.286,-0.354 0.416,-0.53 0.035,-0.082 0.209,-0.193 0.326,-0.294 l 0.38,-0.309 c 0.999,-0.828 1.897,-1.683 2.628,-2.599 6.911,-2.185 12.646,-4.128 19.706,-5.577 1.479,1.228 5.011,0.503 6.489,1.729 6.607,-3.654 13.066,-8.043 19.826,-10.962 1.705,2.329 4.217,4.11 6.729,5.892 0.366,0.212 0.512,0.47 0.723,0.714 0.205,0.245 0.42,0.49 0.642,0.734 0.444,0.489 0.918,0.979 1.415,1.475 0.99,0.992 2.07,2.015 3.117,3.14 3.681,-0.412 6.982,-1.362 9.826,-2.352 -0.252,-4.518 -0.724,-8.614 -0.512,-12.638 l -0.611,-1.766 -0.586,-2.271 -1.179,-4.574 c -0.804,-3.042 -1.61,-6.091 -2.418,-9.149 -1.651,-6.104 -3.396,-12.21 -5.328,-18.327 l 0.253,-4.799 c 1.812,-5.921 2.127,-11.92 3.191,-17.88 3.5,-9.441 6.251,-18.922 7.566,-29.682 1.625,-2.32 2.562,-5.881 4.187,-8.202 -2.184,-1.317 -3.43,-6.195 -5.613,-7.513 0.938,-3.561 1.064,-5.96 1.718,-9.705 0.362,-2.5 0.733,-5.054 1.012,-6.97 0.273,-1.917 0.456,-3.195 0.456,-3.195 0,0 0.555,-3.011 1.108,-6.021 0.556,-3.011 1.021,-5.175 1.021,-5.175 -0.429,-4.772 -0.177,-9.571 -1.422,-14.449 3.121,-2.243 5.557,-5.725 7.931,-8.006 0.062,-1.199 -0.624,-2.439 -0.561,-3.639 -4.99,-5.074 -9.106,-12.51 -12.474,-19.905 2.499,-4.682 4.249,-9.402 7.497,-14.044 0.812,-1.16 0.938,-3.561 1.75,-4.721 1.688,-3.521 3.997,-4.603 6.37,-6.884 1.001,-4.76 3.997,-4.603 4.998,-9.363 -0.497,-4.839 -1.057,-8.477 -0.805,-13.276 -1.995,-4.917 -0.183,-10.838 -2.177,-15.755 -4.677,-11.074 -8.729,-19.708 -13.468,-29.582 5.747,-9.324 10.744,-18.687 17.863,-25.531 -0.435,-6.039 -0.056,-13.238 1.757,-19.158 -2.121,-2.518 -2.68,-6.156 -4.801,-8.674 -0.686,-1.239 -1.436,-1.279 -2.121,-2.518 0.062,-1.2 0.126,-2.399 0.938,-3.56 2.311,-1.082 4.061,-5.802 5.748,-9.323 -0.102,-1.511 -0.203,-3.022 -0.304,-4.528 0.121,-6.31 1.186,-12.27 -0.963,-16.921 -0.742,-1.887 -1.728,-4.393 -2.715,-6.903 -0.994,-2.504 -1.988,-5.008 -2.734,-6.886 -0.182,-0.554 -0.366,-0.705 -0.527,-0.917 -0.161,-0.194 -0.302,-0.362 -0.417,-0.501 -0.233,-0.259 -0.366,-0.406 -0.366,-0.406 0,0 0.61,-0.474 1.539,-1.406 0.928,-0.926 2.176,-2.371 3.442,-4.161 1.266,-1.778 2.322,-3.699 3.104,-5.232 1.035,-1.598 1.092,-2.689 1.146,-3.718 -0.369,-0.234 -0.688,-0.489 -0.962,-0.774 -4.443,0.92 -7.274,0.783 -10.128,0.076 -1.415,-0.352 -2.816,-0.845 -4.287,-1.398 -0.752,-0.289 -1.503,-0.577 -2.246,-0.863 -0.938,-0.321 -1.866,-0.639 -2.778,-0.951 -1.298,0.566 -2.707,1.873 -4.811,1.183 -2.844,0.525 -5.748,1.156 -5.748,1.156 l -20.919,0.242 -16.848,-7.833 -5.922,-2.143 -17.359,7.856 -15.683,-8.951 -13.099,2.397 -21.994,-7.674 -8.543,-8.097 -19.689,4.564 2.562,-17.286 24.605,-6.908 17.072,16.178 5.74,2.003 c 0,0 4.218,-0.771 8.434,-1.543 2.109,-0.385 4.215,-0.771 5.793,-1.06 0.438,-0.473 1.626,-0.297 2.814,-0.121 3.346,2.013 7.989,3.459 10.037,6.037 2.486,-0.39 4.006,-2.439 6.492,-2.829 0.221,-1.484 3.896,-1.697 2.926,-3.358 10.147,5.295 23.002,8.716 33.147,14.011 3.565,0.529 6.163,-0.603 9.618,0.667 5.084,-1.521 11.025,-0.64 16.109,-2.161 1.783,0.264 3.472,0.656 5.111,1.113 0.821,0.228 1.629,0.472 2.432,0.724 l 1.199,0.384 0.599,0.194 0.299,0.098 0.399,0.112 c 4.328,1.21 8.315,2.37 12.92,3.052 4.768,-0.317 9.987,-0.566 15.93,-0.476 0.267,2.102 0.464,4.504 0.565,7.206 0.684,1.295 0.95,3.367 1.214,5.495 0.264,2.134 0.524,4.323 1.185,6.05 -2.002,2.378 -3.301,5.66 -4.501,8.845 -0.61,1.786 -1.15,2.684 -1.761,3.803 -0.608,1.077 -1.271,2.095 -2.068,2.956 1.31,3.678 1.869,7.316 3.927,11.034 -1.315,10.759 0.428,20.476 2.107,31.392 -0.875,2.36 -0.252,4.799 -2.562,5.881 l -0.126,2.4 c 1.436,1.278 2.808,3.757 3.367,7.395 0,0 0.687,1.24 1.435,1.279 -0.377,7.199 -1.442,13.159 -0.61,20.109 0.011,1.895 0.052,3.779 0.127,5.644 0.076,1.864 0.188,3.708 0.343,5.521 -1.624,2.32 -3.185,3.441 -2.625,7.081 -0.749,-0.039 -1.498,-0.079 -2.31,1.082 -0.812,1.159 0.623,2.438 -0.875,2.359 5.109,17.112 1.792,37.392 1.596,55.428 -0.812,1.161 -0.875,2.36 -1.687,3.522 -0.315,5.999 -3.563,10.641 -4.564,15.401 -3.311,5.842 -5.124,11.762 -7.749,18.843 6.489,5.152 2.8,18.193 5.354,26.75 -2.436,3.481 -4.06,5.803 -6.495,9.284 1.309,3.678 0.308,8.438 0.104,12.256 -0.078,1.516 -0.159,3.081 -0.237,4.581 -1.75,4.721 -1.252,9.559 -3.002,14.279 3.556,3.797 5.487,9.913 8.293,13.67 -2.436,3.482 -4.186,8.202 -6.621,11.685 -1.687,3.52 -0.379,7.199 -1.316,10.759 -3.373,7.041 -5.312,15.361 -7.252,23.682 3.868,5.016 6.33,11.763 8.394,18.939 0.517,1.794 1.007,3.613 1.487,5.428 0.591,5.059 2.648,8.775 3.958,12.453 -0.483,9.192 -1.046,19.915 -1.529,29.106 -0.855,5.393 -1.575,10.288 -2.18,15.045 -8.646,1.188 -16.456,2.5 -24.918,4.237 -0.916,-0.049 -1.828,-0.098 -2.738,-0.146 l -1.332,-0.076 c -0.21,-0.014 -0.461,-0.02 -0.633,-0.043 l -0.42,-0.086 c -1.12,-0.226 -2.233,-0.45 -3.341,-0.673 -2.214,-0.451 -4.405,-0.897 -6.581,-1.341 -4.33,-0.93 -8.532,-1.98 -12.517,-3.459 -3.379,1.46 -6.759,2.92 -8.66,5.606 -6.488,-1.729 -13.127,-4.194 -21.215,-1.769 -1.773,1.67 -3.603,3.17 -5.75,4.584 -2.523,1.491 -5.478,2.918 -8.74,4.289 -6.533,2.742 -14.27,5.248 -22.453,7.605 -2.116,-7.268 -4.158,-15.524 -6.257,-23.987 -0.533,-2.14 -1.064,-4.276 -1.595,-6.406 l -0.405,-1.615 -0.166,-0.616 -0.149,-0.521 -0.602,-2.078 c -0.811,-2.762 -1.653,-5.483 -2.557,-8.132 0.053,-3.682 -0.123,-8.542 0.064,-11.981 -0.014,-0.769 -0.025,-1.547 -0.038,-2.348 -0.01,-0.401 -0.01,-0.808 -0.015,-1.221 l 0,-0.31 0.024,-0.175 0.051,-0.361 c 0.271,-1.964 0.521,-4.185 0.802,-6.683 -0.595,0.095 -0.989,-0.05 -1.309,-0.311 -0.984,0.061 -1.894,-0.082 -2.943,0.013 -0.92,-0.696 -1.98,-1.363 -3.115,-1.99 l -0.865,-0.463 c -0.093,-0.058 -0.452,-0.21 -0.681,-0.314 l -0.776,-0.342 c -1.034,-0.453 -2.071,-0.892 -3.111,-1.319 -4.156,-1.704 -8.353,-3.211 -12.576,-4.622 -2.111,-0.705 -4.23,-1.388 -6.355,-2.059 l -3.191,-1.001 -4.364,-1.421 c -6.111,-2.001 -12.396,-4.069 -18.729,-6.266 0.034,-2.97 0.093,-5.987 0.183,-9.037 1.242,-3.951 1.137,-6.727 0.821,-9.615 -0.159,-1.431 -0.37,-2.861 -0.495,-4.334 l -0.08,-1.031 c -0.021,-0.253 -0.037,-0.507 -0.041,-0.763 -0.011,-0.511 0.018,-1.026 0.101,-1.55 -0.202,-2.209 -0.359,-4.418 -0.488,-6.625 -0.517,-8.83 -0.59,-17.647 -1.33,-26.484 0.821,-2.379 0.893,-4.781 0.964,-7.183 0.07,-2.402 0.142,-4.805 0.961,-7.185 0.036,-1.201 -0.714,-1.223 -0.678,-2.424 2.355,-3.536 3.247,-8.318 4.565,-12.948 0.153,-1.38 0.146,-2.802 -0.101,-4.26 -0.244,-1.465 -0.744,-2.916 -1.578,-4.343 0.893,-4.781 1.784,-9.563 3.391,-13.121 -0.71,-1.229 -0.71,-1.229 -1.262,-2.183 -0.636,-1.129 -1.502,-2.704 -2.491,-4.687 -0.99,-1.982 -1.979,-3.964 -2.722,-5.451 -0.742,-1.486 -1.232,-2.257 -1.232,-2.257 0.671,-1.257 2.241,-3.615 2.312,-6.017 3.176,-5.916 5.566,-10.653 7.279,-17.815 -1.857,-0.656 -3.303,-2.501 -4.652,-4.476 -1.168,-1.706 -2.597,-4.152 -4.061,-5.397 2.355,-3.537 5.461,-7.051 7.816,-10.587 -3.713,-1.312 -6.641,-3.803 -9.532,-7.494 3.389,-13.122 10.349,-20.128 13.737,-33.25 -0.679,-2.424 -1.321,-6.049 -2.785,-7.295 l 0.785,-1.178 c -0.644,-3.625 -2.107,-4.871 -3.535,-7.317 -1.109,-13.255 -6.002,-25.419 -8.611,-38.718 4.175,-14.301 9.099,-28.579 10.345,-45.371 -3.5,-8.517 -5.465,-18.191 -2.896,-28.933 0.75,0.021 1.534,-1.157 2.319,-2.336 l 0.107,-3.603 c 1.535,-1.156 3.105,-3.514 3.925,-5.894 -2.963,-1.289 -5.89,-3.78 -8.967,-5.191 -0.933,-0.64 -1.558,-1.07 -1.558,-1.07 3.524,-10.774 9.735,-17.802 12.557,-28.852"
   clip-path="url(#SVGID_2_)" /><path
   style="fill:#000000;fill-opacity:1"
   clip-path="url(#SVGID_2_)"
   d="m 2298.672,828.652 23.853,1.705 -49.181,132.895 28.842,163.274 -24.266,-1.734 -28.108,-156.193 -10.962,153.401 -24.674,-1.764 21.162,-296.11 24.674,1.764 -9.7,135.716 z"
   id="polygon55" />
</svg>